<mxfile host="Electron" agent="Mozilla/5.0 (Windows NT 10.0; Win64; x64) AppleWebKit/537.36 (KHTML, like Gecko) draw.io/24.7.8 Chrome/128.0.6613.36 Electron/32.0.1 Safari/537.36" version="24.7.8">
  <diagram name="Страница — 1" id="Aj_X40v0gQeDCMiwXPUp">
    <mxGraphModel dx="2891" dy="2823" grid="1" gridSize="10" guides="1" tooltips="1" connect="1" arrows="1" fold="1" page="1" pageScale="1" pageWidth="827" pageHeight="1169" math="0" shadow="0">
      <root>
        <mxCell id="0" />
        <mxCell id="1" parent="0" />
        <mxCell id="uOwOTq0F3WO_Qvq2NXr7-19" style="edgeStyle=orthogonalEdgeStyle;rounded=0;orthogonalLoop=1;jettySize=auto;html=1;" edge="1" parent="1" source="uOwOTq0F3WO_Qvq2NXr7-3" target="uOwOTq0F3WO_Qvq2NXr7-18">
          <mxGeometry relative="1" as="geometry" />
        </mxCell>
        <mxCell id="uOwOTq0F3WO_Qvq2NXr7-3" value="Создаёт&lt;div&gt;Изменяет&lt;/div&gt;&lt;div&gt;Оплачивает&lt;/div&gt;&lt;div&gt;Отменяет&lt;/div&gt;" style="rhombus;whiteSpace=wrap;html=1;" vertex="1" parent="1">
          <mxGeometry x="330" y="445" width="210" height="130" as="geometry" />
        </mxCell>
        <mxCell id="uOwOTq0F3WO_Qvq2NXr7-10" style="edgeStyle=orthogonalEdgeStyle;rounded=0;orthogonalLoop=1;jettySize=auto;html=1;exitX=0.5;exitY=0;exitDx=0;exitDy=0;" edge="1" parent="1" source="uOwOTq0F3WO_Qvq2NXr7-7" target="uOwOTq0F3WO_Qvq2NXr7-8">
          <mxGeometry relative="1" as="geometry" />
        </mxCell>
        <mxCell id="uOwOTq0F3WO_Qvq2NXr7-7" value="Курьер" style="rounded=0;whiteSpace=wrap;html=1;" vertex="1" parent="1">
          <mxGeometry y="910" width="195" height="100" as="geometry" />
        </mxCell>
        <mxCell id="uOwOTq0F3WO_Qvq2NXr7-20" style="edgeStyle=orthogonalEdgeStyle;rounded=0;orthogonalLoop=1;jettySize=auto;html=1;" edge="1" parent="1" source="uOwOTq0F3WO_Qvq2NXr7-8" target="uOwOTq0F3WO_Qvq2NXr7-18">
          <mxGeometry relative="1" as="geometry">
            <mxPoint x="97.5" y="570" as="targetPoint" />
          </mxGeometry>
        </mxCell>
        <mxCell id="uOwOTq0F3WO_Qvq2NXr7-8" value="Получает информацию&lt;div&gt;Изменяет статус&lt;/div&gt;" style="rhombus;whiteSpace=wrap;html=1;" vertex="1" parent="1">
          <mxGeometry x="12.5" y="670" width="170" height="130" as="geometry" />
        </mxCell>
        <mxCell id="uOwOTq0F3WO_Qvq2NXr7-21" style="edgeStyle=orthogonalEdgeStyle;rounded=0;orthogonalLoop=1;jettySize=auto;html=1;" edge="1" parent="1" source="uOwOTq0F3WO_Qvq2NXr7-13" target="uOwOTq0F3WO_Qvq2NXr7-18">
          <mxGeometry relative="1" as="geometry" />
        </mxCell>
        <mxCell id="uOwOTq0F3WO_Qvq2NXr7-13" value="Получает информацию&lt;div&gt;Изменяет информацию&lt;/div&gt;" style="rhombus;whiteSpace=wrap;html=1;" vertex="1" parent="1">
          <mxGeometry x="12.5" y="210" width="170" height="130" as="geometry" />
        </mxCell>
        <mxCell id="uOwOTq0F3WO_Qvq2NXr7-22" style="edgeStyle=orthogonalEdgeStyle;rounded=0;orthogonalLoop=1;jettySize=auto;html=1;entryX=0.5;entryY=0;entryDx=0;entryDy=0;" edge="1" parent="1" source="uOwOTq0F3WO_Qvq2NXr7-16" target="uOwOTq0F3WO_Qvq2NXr7-13">
          <mxGeometry relative="1" as="geometry" />
        </mxCell>
        <mxCell id="uOwOTq0F3WO_Qvq2NXr7-35" style="edgeStyle=orthogonalEdgeStyle;rounded=0;orthogonalLoop=1;jettySize=auto;html=1;exitX=0.5;exitY=0;exitDx=0;exitDy=0;entryX=0.5;entryY=1;entryDx=0;entryDy=0;" edge="1" parent="1" source="uOwOTq0F3WO_Qvq2NXr7-16" target="uOwOTq0F3WO_Qvq2NXr7-34">
          <mxGeometry relative="1" as="geometry" />
        </mxCell>
        <mxCell id="uOwOTq0F3WO_Qvq2NXr7-16" value="Администратор" style="rounded=0;whiteSpace=wrap;html=1;" vertex="1" parent="1">
          <mxGeometry width="195" height="100" as="geometry" />
        </mxCell>
        <mxCell id="uOwOTq0F3WO_Qvq2NXr7-38" style="edgeStyle=orthogonalEdgeStyle;rounded=0;orthogonalLoop=1;jettySize=auto;html=1;exitX=0.5;exitY=0;exitDx=0;exitDy=0;entryX=0.5;entryY=1;entryDx=0;entryDy=0;" edge="1" parent="1" source="uOwOTq0F3WO_Qvq2NXr7-17" target="uOwOTq0F3WO_Qvq2NXr7-37">
          <mxGeometry relative="1" as="geometry" />
        </mxCell>
        <mxCell id="uOwOTq0F3WO_Qvq2NXr7-70" style="edgeStyle=orthogonalEdgeStyle;rounded=0;orthogonalLoop=1;jettySize=auto;html=1;exitX=0;exitY=0.5;exitDx=0;exitDy=0;entryX=1;entryY=0.5;entryDx=0;entryDy=0;" edge="1" parent="1" source="uOwOTq0F3WO_Qvq2NXr7-17" target="uOwOTq0F3WO_Qvq2NXr7-3">
          <mxGeometry relative="1" as="geometry" />
        </mxCell>
        <mxCell id="uOwOTq0F3WO_Qvq2NXr7-17" value="Клиент" style="rounded=0;whiteSpace=wrap;html=1;" vertex="1" parent="1">
          <mxGeometry x="620" y="460" width="195" height="100" as="geometry" />
        </mxCell>
        <mxCell id="uOwOTq0F3WO_Qvq2NXr7-52" style="edgeStyle=orthogonalEdgeStyle;rounded=0;orthogonalLoop=1;jettySize=auto;html=1;exitX=1;exitY=0;exitDx=0;exitDy=0;entryX=1;entryY=0.5;entryDx=0;entryDy=0;curved=1;" edge="1" parent="1" source="uOwOTq0F3WO_Qvq2NXr7-18" target="uOwOTq0F3WO_Qvq2NXr7-31">
          <mxGeometry relative="1" as="geometry">
            <Array as="points">
              <mxPoint x="330" y="460" />
              <mxPoint x="330" y="-210" />
              <mxPoint x="340" y="-210" />
              <mxPoint x="340" y="-560" />
            </Array>
          </mxGeometry>
        </mxCell>
        <mxCell id="uOwOTq0F3WO_Qvq2NXr7-86" style="edgeStyle=orthogonalEdgeStyle;rounded=0;orthogonalLoop=1;jettySize=auto;html=1;exitX=1;exitY=1;exitDx=0;exitDy=0;entryX=0.5;entryY=1;entryDx=0;entryDy=0;" edge="1" parent="1" source="uOwOTq0F3WO_Qvq2NXr7-18" target="uOwOTq0F3WO_Qvq2NXr7-17">
          <mxGeometry relative="1" as="geometry" />
        </mxCell>
        <mxCell id="uOwOTq0F3WO_Qvq2NXr7-87" style="edgeStyle=orthogonalEdgeStyle;rounded=0;orthogonalLoop=1;jettySize=auto;html=1;exitX=0;exitY=1;exitDx=0;exitDy=0;entryX=0.5;entryY=1;entryDx=0;entryDy=0;" edge="1" parent="1" source="uOwOTq0F3WO_Qvq2NXr7-18" target="uOwOTq0F3WO_Qvq2NXr7-24">
          <mxGeometry relative="1" as="geometry" />
        </mxCell>
        <mxCell id="uOwOTq0F3WO_Qvq2NXr7-88" style="edgeStyle=orthogonalEdgeStyle;rounded=0;orthogonalLoop=1;jettySize=auto;html=1;exitX=0.25;exitY=1;exitDx=0;exitDy=0;entryX=0.5;entryY=1;entryDx=0;entryDy=0;" edge="1" parent="1" source="uOwOTq0F3WO_Qvq2NXr7-18" target="uOwOTq0F3WO_Qvq2NXr7-7">
          <mxGeometry relative="1" as="geometry">
            <Array as="points">
              <mxPoint x="50" y="560" />
              <mxPoint x="50" y="680" />
              <mxPoint x="-90" y="680" />
              <mxPoint x="-90" y="1030" />
              <mxPoint x="98" y="1030" />
            </Array>
          </mxGeometry>
        </mxCell>
        <mxCell id="uOwOTq0F3WO_Qvq2NXr7-18" value="Заказ" style="rounded=0;whiteSpace=wrap;html=1;" vertex="1" parent="1">
          <mxGeometry y="460" width="195" height="100" as="geometry" />
        </mxCell>
        <mxCell id="uOwOTq0F3WO_Qvq2NXr7-41" style="edgeStyle=orthogonalEdgeStyle;rounded=0;orthogonalLoop=1;jettySize=auto;html=1;exitX=0.5;exitY=0;exitDx=0;exitDy=0;entryX=0.5;entryY=1;entryDx=0;entryDy=0;" edge="1" parent="1" source="uOwOTq0F3WO_Qvq2NXr7-24" target="uOwOTq0F3WO_Qvq2NXr7-40">
          <mxGeometry relative="1" as="geometry" />
        </mxCell>
        <mxCell id="uOwOTq0F3WO_Qvq2NXr7-53" style="edgeStyle=orthogonalEdgeStyle;rounded=0;orthogonalLoop=1;jettySize=auto;html=1;exitX=1;exitY=0.5;exitDx=0;exitDy=0;entryX=0;entryY=0.5;entryDx=0;entryDy=0;" edge="1" parent="1" source="uOwOTq0F3WO_Qvq2NXr7-24" target="uOwOTq0F3WO_Qvq2NXr7-29">
          <mxGeometry relative="1" as="geometry" />
        </mxCell>
        <mxCell id="uOwOTq0F3WO_Qvq2NXr7-24" value="Кухня" style="rounded=0;whiteSpace=wrap;html=1;" vertex="1" parent="1">
          <mxGeometry x="-550" y="460" width="195" height="100" as="geometry" />
        </mxCell>
        <mxCell id="uOwOTq0F3WO_Qvq2NXr7-81" style="edgeStyle=orthogonalEdgeStyle;rounded=0;orthogonalLoop=1;jettySize=auto;html=1;exitX=1;exitY=0.5;exitDx=0;exitDy=0;" edge="1" parent="1" source="uOwOTq0F3WO_Qvq2NXr7-29" target="uOwOTq0F3WO_Qvq2NXr7-18">
          <mxGeometry relative="1" as="geometry" />
        </mxCell>
        <mxCell id="uOwOTq0F3WO_Qvq2NXr7-29" value="Получает информацию&lt;div&gt;Изменяет статус&lt;/div&gt;" style="rhombus;whiteSpace=wrap;html=1;" vertex="1" parent="1">
          <mxGeometry x="-260" y="445" width="170" height="130" as="geometry" />
        </mxCell>
        <mxCell id="uOwOTq0F3WO_Qvq2NXr7-31" value="Блюдо" style="rounded=0;whiteSpace=wrap;html=1;" vertex="1" parent="1">
          <mxGeometry y="-610" width="195" height="100" as="geometry" />
        </mxCell>
        <mxCell id="uOwOTq0F3WO_Qvq2NXr7-44" style="edgeStyle=orthogonalEdgeStyle;rounded=0;orthogonalLoop=1;jettySize=auto;html=1;exitX=0.5;exitY=0;exitDx=0;exitDy=0;entryX=0.5;entryY=1;entryDx=0;entryDy=0;" edge="1" parent="1" source="uOwOTq0F3WO_Qvq2NXr7-33" target="uOwOTq0F3WO_Qvq2NXr7-31">
          <mxGeometry relative="1" as="geometry" />
        </mxCell>
        <mxCell id="uOwOTq0F3WO_Qvq2NXr7-33" value="Меню" style="rounded=0;whiteSpace=wrap;html=1;" vertex="1" parent="1">
          <mxGeometry y="-340" width="195" height="100" as="geometry" />
        </mxCell>
        <mxCell id="uOwOTq0F3WO_Qvq2NXr7-36" style="edgeStyle=orthogonalEdgeStyle;rounded=0;orthogonalLoop=1;jettySize=auto;html=1;exitX=0.5;exitY=0;exitDx=0;exitDy=0;entryX=0.5;entryY=1;entryDx=0;entryDy=0;" edge="1" parent="1" source="uOwOTq0F3WO_Qvq2NXr7-34" target="uOwOTq0F3WO_Qvq2NXr7-33">
          <mxGeometry relative="1" as="geometry" />
        </mxCell>
        <mxCell id="uOwOTq0F3WO_Qvq2NXr7-34" value="Получает информацию&lt;div&gt;Изменяет информацию&lt;/div&gt;" style="rhombus;whiteSpace=wrap;html=1;" vertex="1" parent="1">
          <mxGeometry x="12.5" y="-190" width="170" height="130" as="geometry" />
        </mxCell>
        <mxCell id="uOwOTq0F3WO_Qvq2NXr7-39" style="edgeStyle=orthogonalEdgeStyle;rounded=0;orthogonalLoop=1;jettySize=auto;html=1;exitX=0.5;exitY=0;exitDx=0;exitDy=0;entryX=1;entryY=0.5;entryDx=0;entryDy=0;" edge="1" parent="1" source="uOwOTq0F3WO_Qvq2NXr7-37" target="uOwOTq0F3WO_Qvq2NXr7-33">
          <mxGeometry relative="1" as="geometry" />
        </mxCell>
        <mxCell id="uOwOTq0F3WO_Qvq2NXr7-37" value="Получает информацию" style="rhombus;whiteSpace=wrap;html=1;" vertex="1" parent="1">
          <mxGeometry x="430" y="20" width="170" height="130" as="geometry" />
        </mxCell>
        <mxCell id="uOwOTq0F3WO_Qvq2NXr7-42" style="edgeStyle=orthogonalEdgeStyle;rounded=0;orthogonalLoop=1;jettySize=auto;html=1;exitX=0.5;exitY=0;exitDx=0;exitDy=0;entryX=0;entryY=0.5;entryDx=0;entryDy=0;" edge="1" parent="1" source="uOwOTq0F3WO_Qvq2NXr7-40" target="uOwOTq0F3WO_Qvq2NXr7-33">
          <mxGeometry relative="1" as="geometry" />
        </mxCell>
        <mxCell id="uOwOTq0F3WO_Qvq2NXr7-40" value="Получает информацию&lt;div&gt;Изменяет информацию&lt;/div&gt;" style="rhombus;whiteSpace=wrap;html=1;" vertex="1" parent="1">
          <mxGeometry x="-413" y="20" width="170" height="130" as="geometry" />
        </mxCell>
        <mxCell id="uOwOTq0F3WO_Qvq2NXr7-55" value="1" style="text;strokeColor=none;fillColor=none;html=1;fontSize=24;fontStyle=1;verticalAlign=middle;align=center;" vertex="1" parent="1">
          <mxGeometry x="-25" y="-330" width="20" height="40" as="geometry" />
        </mxCell>
        <mxCell id="uOwOTq0F3WO_Qvq2NXr7-61" value="1" style="text;strokeColor=none;fillColor=none;html=1;fontSize=24;fontStyle=1;verticalAlign=middle;align=center;" vertex="1" parent="1">
          <mxGeometry x="-480" y="420" width="20" height="40" as="geometry" />
        </mxCell>
        <mxCell id="uOwOTq0F3WO_Qvq2NXr7-62" value="1" style="text;strokeColor=none;fillColor=none;html=1;fontSize=24;fontStyle=1;verticalAlign=middle;align=center;" vertex="1" parent="1">
          <mxGeometry x="-355" y="510" width="20" height="40" as="geometry" />
        </mxCell>
        <mxCell id="uOwOTq0F3WO_Qvq2NXr7-63" value="1" style="text;strokeColor=none;fillColor=none;html=1;fontSize=24;fontStyle=1;verticalAlign=middle;align=center;" vertex="1" parent="1">
          <mxGeometry x="100" y="870" width="20" height="40" as="geometry" />
        </mxCell>
        <mxCell id="uOwOTq0F3WO_Qvq2NXr7-64" value="1" style="text;strokeColor=none;fillColor=none;html=1;fontSize=24;fontStyle=1;verticalAlign=middle;align=center;" vertex="1" parent="1">
          <mxGeometry x="590" y="510" width="20" height="40" as="geometry" />
        </mxCell>
        <mxCell id="uOwOTq0F3WO_Qvq2NXr7-71" value="n" style="text;strokeColor=none;fillColor=none;html=1;fontSize=24;fontStyle=1;verticalAlign=middle;align=center;" vertex="1" parent="1">
          <mxGeometry x="100" y="560" width="30" height="40" as="geometry" />
        </mxCell>
        <mxCell id="uOwOTq0F3WO_Qvq2NXr7-72" value="n" style="text;strokeColor=none;fillColor=none;html=1;fontSize=24;fontStyle=1;verticalAlign=middle;align=center;" vertex="1" parent="1">
          <mxGeometry x="195" y="510" width="30" height="40" as="geometry" />
        </mxCell>
        <mxCell id="uOwOTq0F3WO_Qvq2NXr7-73" value="n" style="text;strokeColor=none;fillColor=none;html=1;fontSize=24;fontStyle=1;verticalAlign=middle;align=center;" vertex="1" parent="1">
          <mxGeometry x="720" y="420" width="30" height="40" as="geometry" />
        </mxCell>
        <mxCell id="uOwOTq0F3WO_Qvq2NXr7-74" value="n" style="text;strokeColor=none;fillColor=none;html=1;fontSize=24;fontStyle=1;verticalAlign=middle;align=center;" vertex="1" parent="1">
          <mxGeometry x="100" y="100" width="30" height="40" as="geometry" />
        </mxCell>
        <mxCell id="uOwOTq0F3WO_Qvq2NXr7-75" value="n" style="text;strokeColor=none;fillColor=none;html=1;fontSize=24;fontStyle=1;verticalAlign=middle;align=center;" vertex="1" parent="1">
          <mxGeometry x="100" y="420" width="30" height="40" as="geometry" />
        </mxCell>
        <mxCell id="uOwOTq0F3WO_Qvq2NXr7-76" value="n" style="text;strokeColor=none;fillColor=none;html=1;fontSize=24;fontStyle=1;verticalAlign=middle;align=center;" vertex="1" parent="1">
          <mxGeometry x="-30" y="510" width="30" height="40" as="geometry" />
        </mxCell>
        <mxCell id="uOwOTq0F3WO_Qvq2NXr7-78" value="n" style="text;strokeColor=none;fillColor=none;html=1;fontSize=24;fontStyle=1;verticalAlign=middle;align=center;" vertex="1" parent="1">
          <mxGeometry x="200" y="-604" width="30" height="40" as="geometry" />
        </mxCell>
        <mxCell id="uOwOTq0F3WO_Qvq2NXr7-79" value="n" style="text;strokeColor=none;fillColor=none;html=1;fontSize=24;fontStyle=1;verticalAlign=middle;align=center;" vertex="1" parent="1">
          <mxGeometry x="100" y="-510" width="30" height="40" as="geometry" />
        </mxCell>
        <mxCell id="uOwOTq0F3WO_Qvq2NXr7-80" value="n" style="text;strokeColor=none;fillColor=none;html=1;fontSize=24;fontStyle=1;verticalAlign=middle;align=center;" vertex="1" parent="1">
          <mxGeometry x="95" y="-40" width="30" height="40" as="geometry" />
        </mxCell>
        <mxCell id="uOwOTq0F3WO_Qvq2NXr7-82" value="n" style="text;strokeColor=none;fillColor=none;html=1;fontSize=24;fontStyle=1;verticalAlign=middle;align=center;" vertex="1" parent="1">
          <mxGeometry x="100" y="-380" width="30" height="40" as="geometry" />
        </mxCell>
        <mxCell id="uOwOTq0F3WO_Qvq2NXr7-83" value="n" style="text;strokeColor=none;fillColor=none;html=1;fontSize=24;fontStyle=1;verticalAlign=middle;align=center;" vertex="1" parent="1">
          <mxGeometry x="100" y="-240" width="30" height="40" as="geometry" />
        </mxCell>
        <mxCell id="uOwOTq0F3WO_Qvq2NXr7-84" value="n" style="text;strokeColor=none;fillColor=none;html=1;fontSize=24;fontStyle=1;verticalAlign=middle;align=center;" vertex="1" parent="1">
          <mxGeometry x="200" y="-330" width="30" height="40" as="geometry" />
        </mxCell>
        <mxCell id="uOwOTq0F3WO_Qvq2NXr7-85" value="1" style="text;strokeColor=none;fillColor=none;html=1;fontSize=24;fontStyle=1;verticalAlign=middle;align=center;" vertex="1" parent="1">
          <mxGeometry x="210" y="410" width="20" height="40" as="geometry" />
        </mxCell>
      </root>
    </mxGraphModel>
  </diagram>
</mxfile>
